<svg width="300" height="400" viewBox="0 0 300 400" xmlns="http://www.w3.org/2000/svg">
  <defs>
    <style>
      .main-body { fill: black; stroke: white; stroke-width: 4; }
      .white-detail { fill: white; stroke: none; }
      .limb-line { fill: none; stroke: white; stroke-width: 4; stroke-linecap: round; stroke-linejoin: round; }
    </style>
  </defs>
  

  <g class="limb-line">
    <polyline points="110,140 60,140 60,240" />
    
    <polyline points="190,140 240,140 240,240" />
  </g>

  <polygon class="main-body" points="110,130 190,130 230,270 70,270" />

  <circle class="main-body" cx="150" cy="80" r="45" />

  <g class="white-detail">
    <rect x="115" y="65" width="18" height="4" rx="1" /> <rect x="167" y="65" width="18" height="4" rx="1" /> <polygon points="150,132 125,132 150,155" />
    <polygon points="150,132 175,132 150,155" />

    <polygon points="140,155 160,155 155,200 145,200" />
  </g>

  <g transform="translate(60, 255)">
    <circle class="main-body" cx="0" cy="0" r="15" stroke-width="3" />
    <path class="limb-line" d="M 15,-5 L 22,-5 L 22,5 L 15,5" stroke-width="3" fill="none"/>
  </g>

</svg>